<?xml version="1.0" encoding="UTF-8"?>
<svg version="1.1" xmlns="http://www.w3.org/2000/svg" width="200" height="200">
<path d="M0 0 C2 1 2 1 2.87158203 3.4699707 C3.37214111 5.02590942 3.37214111 5.02590942 3.8828125 6.61328125 C6.97491747 14.24416265 11.70077703 16.69417267 18.875 20.1875 C21.1287618 21.35714709 23.38137033 22.52901909 25.6328125 23.703125 C27.26911621 24.5374707 27.26911621 24.5374707 28.93847656 25.38867188 C33.62656182 27.85608517 38.08824089 30.66435893 42.49560547 33.6003418 C44.93180369 35.14130167 46.62947771 35.99486969 49.5390625 36.03515625 C52.84659867 34.64389103 55.10939885 32.48190449 57.625 30 C58.67619077 29.00029142 59.72962654 28.00293878 60.78515625 27.0078125 C61.58203857 26.25419434 61.58203857 26.25419434 62.39501953 25.48535156 C73.00702175 15.66432608 73.00702175 15.66432608 78 14 C76.69230402 16.83850596 75.26739654 19.0476221 73.1875 21.375 C72.58164063 22.05304687 71.97578125 22.73109375 71.3515625 23.4296875 C66.26886897 28.98518973 61.13959098 34.49715974 56 40 C58.99735364 43.08603274 61.83490983 45.70762801 66 47 C70.38977669 47.04097808 74.6551843 46.60108728 79 46 C78.3820901 49.29671212 77.88930686 50.12113265 75.48120117 52.75634766 C71.24825354 58.5163864 72.2624231 66.06473079 72.30078125 72.8984375 C72.29486435 74.45871524 72.2876143 76.01898843 72.27909851 77.57925415 C72.26724712 80.8424655 72.27387517 84.10499359 72.29321289 87.36816406 C72.31606788 91.53010916 72.28934494 95.6900081 72.24815083 99.85175133 C72.22245086 103.07255683 72.22518594 106.29288087 72.23604393 109.51375198 C72.23752116 111.04701213 72.22995098 112.58031094 72.21279335 114.1134758 C72.13578671 122.32849041 72.2707352 128.81007495 77.71427917 135.40420532 C79 137 79 137 79 139 C78.16597656 138.94199219 77.33195313 138.88398438 76.47265625 138.82421875 C69.37493318 138.53965941 64.67206278 138.92218441 58.70703125 142.90625 C57 144 57 144 55 144 C58.79497102 148.36848754 62.62300718 152.70405255 66.5 157 C70.37699282 161.29594745 74.20502898 165.63151246 78 170 C77.34 170.66 76.68 171.32 76 172 C75.40574219 171.45472656 74.81148437 170.90945312 74.19921875 170.34765625 C68.80784983 165.44260055 63.30890499 160.7227675 57.640625 156.140625 C54.7372897 153.78703366 51.86705812 151.39759831 49 149 C48.19820313 149.46148437 47.39640625 149.92296875 46.5703125 150.3984375 C39.46597972 154.47416583 32.33994142 158.50923839 25.1875 162.5 C24.3929541 162.94520996 23.5984082 163.39041992 22.77978516 163.84912109 C22.04163574 164.25984863 21.30348633 164.67057617 20.54296875 165.09375 C19.88321045 165.46177734 19.22345215 165.82980469 18.54370117 166.20898438 C17 167 17 167 16 167 C15.67700195 164.22900391 15.67700195 164.22900391 16 161 C18.14526367 159.04052734 18.14526367 159.04052734 21.16796875 157.3359375 C22.83557251 156.37312866 22.83557251 156.37312866 24.53686523 155.39086914 C25.7534337 154.71835205 26.97031874 154.04640737 28.1875 153.375 C29.41788423 152.67574215 30.64712698 151.97447215 31.87524414 151.27124023 C34.36802723 149.84816703 36.86738121 148.43785797 39.37304688 147.03759766 C42.71231711 145.1684596 46.02348298 143.25404089 49.328125 141.32421875 C51.19761638 140.23646291 53.06739017 139.14919224 54.9375 138.0625 C55.79947998 137.56089355 56.66145996 137.05928711 57.54956055 136.54248047 C58.346604 136.08631348 59.14364746 135.63014648 59.96484375 135.16015625 C60.6518335 134.76449463 61.33882324 134.36883301 62.04663086 133.96118164 C64.02058111 132.98987279 65.85202127 132.44855821 68 132 C67.67 131.34 67.34 130.68 67 130 C66.90211471 127.62495856 66.86366285 125.27930963 66.87060547 122.90405273 C66.86797699 121.80874741 66.86797699 121.80874741 66.86529541 120.6913147 C66.86088564 118.27205038 66.86381151 115.85285885 66.8671875 113.43359375 C66.86651428 111.75732916 66.86554411 110.08106467 66.86428833 108.40480042 C66.8628126 104.89005606 66.86496218 101.37533711 66.86962891 97.8605957 C66.87533051 93.34533134 66.87204367 88.83012635 66.86605644 84.31486416 C66.8624512 80.85345508 66.86358917 77.3920602 66.86618423 73.93065071 C66.86685338 72.26519832 66.86602552 70.59974466 66.86370468 68.93429375 C66.86117828 66.61167843 66.86501834 64.28916074 66.87060547 61.96655273 C66.86858124 61.27198471 66.86655701 60.57741669 66.86447144 59.86180115 C66.88573632 55.11426368 66.88573632 55.11426368 68 54 C67.11183594 53.65582031 66.22367188 53.31164063 65.30859375 52.95703125 C59.29893385 50.37587254 53.71711371 46.95430114 48.0625 43.6875 C46.82346663 42.97533698 45.5842882 42.26342628 44.3449707 41.55175781 C33.32150548 35.21424695 22.33643397 28.8102782 11.36865234 22.37695312 C9.24275663 21.14112012 7.10330242 19.93429803 4.95703125 18.734375 C2 17 2 17 0 15 C-0.58358276 15.64714966 -0.58358276 15.64714966 -1.17895508 16.30737305 C-3.33960903 18.31566019 -5.57137086 19.62326881 -8.13671875 21.08203125 C-9.17763672 21.67765869 -10.21855469 22.27328613 -11.29101562 22.88696289 C-12.41185547 23.52239014 -13.53269531 24.15781738 -14.6875 24.8125 C-16.44649372 25.81704278 -18.20446139 26.82336622 -19.96243286 27.82969666 C-21.16855348 28.51992398 -22.37499847 29.20958477 -23.58175659 29.8986969 C-29.74207022 33.41746846 -35.87351072 36.98519696 -42 40.5625 C-42.95865967 41.12106689 -43.91731934 41.67963379 -44.9050293 42.25512695 C-45.82324463 42.79097412 -46.74145996 43.32682129 -47.6875 43.87890625 C-49.01007812 44.64871826 -49.01007812 44.64871826 -50.359375 45.43408203 C-52.17532954 46.51096188 -53.97685475 47.61243136 -55.765625 48.73388672 C-57.08820312 49.55977295 -57.08820312 49.55977295 -58.4375 50.40234375 C-59.21996094 50.90113037 -60.00242187 51.39991699 -60.80859375 51.91381836 C-63 53 -63 53 -67 53 C-66.67 53.66 -66.34 54.32 -66 55 C-65.90211803 57.36977403 -65.86366249 59.71008883 -65.87060547 62.08007812 C-65.86885315 62.80867538 -65.86710083 63.53727264 -65.86529541 64.28794861 C-65.86088509 66.70240646 -65.86381201 69.11679137 -65.8671875 71.53125 C-65.86651423 73.20511896 -65.865544 74.87898782 -65.86428833 76.55285645 C-65.86281247 80.06340464 -65.86496234 83.57392741 -65.86962891 87.08447266 C-65.87532613 91.5906705 -65.87204653 96.09680879 -65.86605644 100.60300446 C-65.86244782 104.06016491 -65.86359081 107.51731117 -65.86618423 110.97447205 C-65.86685267 112.63630683 -65.86602798 114.2981429 -65.86370468 115.9599762 C-65.86117325 118.27999294 -65.86502571 120.5999124 -65.87060547 122.91992188 C-65.86858124 123.61089462 -65.86655701 124.30186737 -65.86447144 125.01377869 C-65.88573537 129.77147075 -65.88573537 129.77147075 -67 132 C-65.91203125 132.36222656 -64.8240625 132.72445312 -63.703125 133.09765625 C-58.0221908 135.23361768 -52.94831263 138.33663437 -47.75 141.4375 C-46.71037109 142.05496094 -45.67074219 142.67242187 -44.59960938 143.30859375 C-42.45671721 144.58154735 -40.31479211 145.8561303 -38.17382812 147.13232422 C-35.13201071 148.92231678 -32.06580796 150.65821859 -28.984375 152.37890625 C-28.05786133 152.90621338 -27.13134766 153.43352051 -26.17675781 153.97680664 C-24.42526679 154.97348235 -22.66439102 155.95388689 -20.89355469 156.91577148 C-18.73522529 158.16334655 -16.81917862 159.29541531 -15 161 C-14.46875 164.34375 -14.46875 164.34375 -15 167 C-26.15071911 161.83259358 -36.52939239 155.40353777 -47 149 C-50.86736776 151.48337468 -54.32718962 154.05539406 -57.6875 157.1875 C-61.37843805 160.55408288 -65.10938842 163.85215245 -68.9375 167.0625 C-69.83339844 167.81660156 -70.72929688 168.57070312 -71.65234375 169.34765625 C-74 171 -74 171 -77 171 C-73.39703435 165.86850347 -69.51853062 161.39003363 -65.02734375 157.01953125 C-60.97698297 152.98477879 -57.17267382 148.75901073 -54 144 C-54.70125 143.731875 -55.4025 143.46375 -56.125 143.1875 C-59 142 -59 142 -61.5 140.375 C-66.89490029 138.25557489 -72.27147722 138.77051912 -78 139 C-76.98587054 136.04212241 -76.085423 134.09342116 -73.95620728 131.7648468 C-71.48248302 128.26855647 -71.48221815 126.20658172 -71.45068359 121.94995117 C-71.44046173 121.2598143 -71.43023987 120.56967743 -71.41970825 119.85862732 C-71.39200182 117.5863841 -71.39382305 115.31536041 -71.3984375 113.04296875 C-71.39065711 111.45501764 -71.38198644 109.86707067 -71.37246704 108.27912903 C-71.35756002 104.95279446 -71.35811064 101.62688444 -71.36865234 98.30053711 C-71.38022324 94.05330949 -71.34642281 89.8078316 -71.299963 85.56089306 C-71.27038377 82.28096991 -71.26875898 79.00146274 -71.27498245 75.72142982 C-71.27396065 74.15662491 -71.26357194 72.59179528 -71.24335861 71.02712059 C-70.91990525 61.00857916 -70.91990525 61.00857916 -75.04541016 52.1652832 C-75.59572906 51.60517044 -76.14604797 51.04505768 -76.71304321 50.4679718 C-78 49 -78 49 -78 46 C-77.17757812 46.14179687 -76.35515625 46.28359375 -75.5078125 46.4296875 C-67.65765657 47.46307985 -63.26131753 46.90575262 -56.73046875 42.34765625 C-56.15941406 41.90292969 -55.58835937 41.45820312 -55 41 C-59.18566255 36.02245534 -63.5280561 31.20593667 -67.95239258 26.44042969 C-77 16.65275486 -77 16.65275486 -77 14 C-72.80061514 15.71698987 -69.73578558 18.66661649 -66.375 21.625 C-65.12438961 22.70522839 -63.87308329 23.7846516 -62.62109375 24.86328125 C-60.41748032 26.76837419 -58.2233294 28.68252871 -56.03515625 30.60546875 C-55.17792969 31.33378906 -54.32070313 32.06210937 -53.4375 32.8125 C-52.69371094 33.45832031 -51.94992188 34.10414062 -51.18359375 34.76953125 C-49.0779881 36.23424206 -49.0779881 36.23424206 -46.68920898 35.75463867 C-43.71140721 34.91901586 -41.44852423 33.73301746 -38.7890625 32.15625 C-37.79817627 31.57407715 -36.80729004 30.9919043 -35.78637695 30.39208984 C-34.74312256 29.7677002 -33.69986816 29.14331055 -32.625 28.5 C-30.46505971 27.21057568 -28.3049036 25.92151279 -26.14453125 24.6328125 C-25.09475098 24.00536133 -24.0449707 23.37791016 -22.96337891 22.73144531 C-20.4246216 21.24809823 -17.87037248 19.84702101 -15.26171875 18.4921875 C-7.58680948 14.43157728 -3.32418217 10.97125459 -0.56640625 2.30859375 C-0.37949219 1.54675781 -0.19257812 0.78492187 0 0 Z " fill="#FEFEFE" transform="translate(100,1)"/>
<path d="M0 0 C1.81242052 -0.02687279 3.62495233 -0.04633715 5.4375 -0.0625 C6.44683594 -0.07410156 7.45617187 -0.08570313 8.49609375 -0.09765625 C11 0 11 0 12 1 C12.14575594 2.69685455 12.22729238 4.39931436 12.28125 6.1015625 C12.33732422 7.67357422 12.33732422 7.67357422 12.39453125 9.27734375 C12.44673828 10.93443359 12.44673828 10.93443359 12.5 12.625 C12.5694781 14.78396757 12.64231137 16.94283017 12.71875 19.1015625 C12.74904297 20.06400879 12.77933594 21.02645508 12.81054688 22.01806641 C13.02301027 25.3621745 13.52611817 28.68282716 14 32 C19.94 32 25.88 32 32 32 C32 35.3 32 38.6 32 42 C25.73 42 19.46 42 13 42 C13 42.66 13 43.32 13 44 C14.32 44 15.64 44 17 44 C17 72.38 17 100.76 17 130 C10 134 10 134 7 134 C6.98969254 133.25719788 6.97938507 132.51439575 6.96876526 131.74908447 C6.8707459 124.74536904 6.76822517 117.74173731 6.66066074 110.73816299 C6.60552067 107.13764699 6.55211515 103.53712273 6.50268555 99.93652344 C6.45491019 96.46108835 6.40256304 92.98574933 6.34705925 89.51042938 C6.31679173 87.54071081 6.29124654 85.57092152 6.26576233 83.60113525 C6.24581711 82.40019226 6.22587189 81.19924927 6.20532227 79.96191406 C6.18977798 78.90490295 6.1742337 77.84789185 6.15821838 76.7588501 C6.07235819 73.76075559 6.07235819 73.76075559 5 70 C4.67 91.12 4.34 112.24 4 134 C-3.05097063 132.58980587 -3.05097063 132.58980587 -6 130 C-6.48711345 127.06272012 -6.63418593 124.70243663 -6.56762695 121.76489258 C-6.56872215 120.50602486 -6.56872215 120.50602486 -6.56983948 119.22172546 C-6.56635358 116.44533848 -6.52744638 113.6706254 -6.48828125 110.89453125 C-6.47895666 108.97068702 -6.47183888 107.04683092 -6.46684265 105.12297058 C-6.44774498 100.05753848 -6.39862023 94.99282239 -6.34332275 89.92767334 C-6.29219001 84.75982348 -6.26934138 79.591858 -6.24414062 74.42382812 C-6.19050426 64.28223736 -6.10515788 54.1411782 -6 44 C-4.68 44 -3.36 44 -2 44 C-2 43.34 -2 42.68 -2 42 C-8.27 42 -14.54 42 -21 42 C-21 38.7 -21 35.4 -21 32 C-15.06 31.67 -9.12 31.34 -3 31 C-0.98817701 20.67264196 -0.41682067 10.48633053 0 0 Z " fill="#FEFEFE" transform="translate(95,64)"/>
<path d="M0 0 C0.99 0.66 1.98 1.32 3 2 C3.66 1.34 4.32 0.68 5 0 C45.19599081 22.28683606 45.19599081 22.28683606 63 34 C62.67 34.99 62.34 35.98 62 37 C63.485 37.495 63.485 37.495 65 38 C65 60.44 65 82.88 65 106 C63.515 106.495 63.515 106.495 62 107 C62 108.32 62 109.64 62 111 C61.29093506 111.40726318 60.58187012 111.81452637 59.85131836 112.23413086 C57.14768288 113.78792672 54.44467753 115.3428109 51.74221802 116.89865112 C50.54240658 117.58929795 49.34243589 118.27966819 48.14230347 118.96975708 C40.455228 123.39144287 32.78498325 127.83480315 25.27905273 132.56030273 C22.58643757 134.22070138 21.23778291 135 18 135 C19.31087299 131.06738103 20.79335089 130.6847597 24.36328125 128.671875 C25.47896484 128.03636719 26.59464844 127.40085937 27.74414062 126.74609375 C28.9334276 126.08043223 30.12288143 125.41506874 31.3125 124.75 C33.6004095 123.45338803 35.88817061 122.15651418 38.17578125 120.859375 C39.3045166 120.22451172 40.43325195 119.58964844 41.59619141 118.93554688 C43.89830037 117.62647215 46.18579196 116.30660633 48.46240234 114.95507812 C49.54086426 114.31505859 50.61932617 113.67503906 51.73046875 113.015625 C53.18102661 112.14599121 53.18102661 112.14599121 54.66088867 111.25878906 C57 110 57 110 59 110 C58.525625 109.236875 58.05125 108.47375 57.5625 107.6875 C56 105 56 105 55 102 C57.64 102.33 60.28 102.66 63 103 C62.67 82.54 62.34 62.08 62 41 C58.535 41.495 58.535 41.495 55 42 C56.33333333 39.33333333 57.66666667 36.66666667 59 34 C58.27143799 33.7225293 57.54287598 33.44505859 56.79223633 33.15917969 C54.17305652 32.07184335 51.78877258 30.85102985 49.32421875 29.453125 C48.42469482 28.94426758 47.5251709 28.43541016 46.59838867 27.91113281 C45.63779541 27.36295898 44.67720215 26.81478516 43.6875 26.25 C42.19150269 25.40066895 42.19150269 25.40066895 40.6652832 24.53417969 C30.08069931 18.50846191 19.56650761 12.36177244 9.06518555 6.19238281 C7.7318985 5.42257859 6.37702662 4.68851331 5 4 C4.814375 5.175625 4.814375 5.175625 4.625 6.375 C4 9 4 9 2 11 C0.5393715 8.35261084 0 7.10551666 0 4 C-16.82255049 13.32733383 -33.66335936 22.67332777 -49.984375 32.86328125 C-52 34 -52 34 -54 34 C-52.68 35.98 -51.36 37.96 -50 40 C-50.33 40.66 -50.66 41.32 -51 42 C-53.31 41.67 -55.62 41.34 -58 41 C-58 61.46 -58 81.92 -58 103 C-55.36 102.67 -52.72 102.34 -50 102 C-51.33333333 104.66666667 -52.66666667 107.33333333 -54 110 C-53.17113281 110.2371875 -52.34226562 110.474375 -51.48828125 110.71875 C-47.39117361 112.22362268 -43.90703611 114.24226578 -40.1875 116.5 C-38.69170898 117.39764007 -37.19560534 118.29475936 -35.69921875 119.19140625 C-34.9314209 119.65305176 -34.16362305 120.11469727 -33.37255859 120.59033203 C-30.97788476 122.01313988 -28.56551611 123.39984481 -26.14453125 124.77734375 C-24.97724487 125.44636719 -24.97724487 125.44636719 -23.78637695 126.12890625 C-22.28475311 126.9883514 -20.77946642 127.84143429 -19.27026367 128.6875 C-14.11220958 131.66337127 -14.11220958 131.66337127 -13 135 C-16.49226829 134.32106136 -19.20186568 132.92419075 -22.296875 131.19140625 C-23.33142822 130.61342285 -24.36598145 130.03543945 -25.43188477 129.43994141 C-26.52686279 128.82038574 -27.62184082 128.20083008 -28.75 127.5625 C-29.8649585 126.93520996 -30.97991699 126.30791992 -32.12866211 125.66162109 C-40.91410067 120.68720016 -49.52361068 115.48249324 -58 110 C-57.67 109.01 -57.34 108.02 -57 107 C-57.99 106.67 -58.98 106.34 -60 106 C-60 83.56 -60 61.12 -60 38 C-58.515 37.505 -58.515 37.505 -57 37 C-57 35.68 -57 34.36 -57 33 C-55.20947266 31.4987793 -55.20947266 31.4987793 -52.6640625 30.07421875 C-51.71394287 29.53200684 -50.76382324 28.98979492 -49.78491211 28.43115234 C-48.74214111 27.85574707 -47.69937012 27.2803418 -46.625 26.6875 C-44.43096529 25.44405327 -42.23695579 24.20056208 -40.04296875 22.95703125 C-38.89231934 22.3120166 -37.74166992 21.66700195 -36.55615234 21.00244141 C-32.97532111 18.99223888 -29.4168395 16.94467013 -25.86328125 14.88671875 C-25.28145081 14.549785 -24.69962036 14.21285126 -24.10015869 13.8657074 C-22.3792709 12.86880763 -20.65838543 11.87190384 -18.9375 10.875 C-12.63234155 7.23712087 -6.32357385 3.60578254 0 0 Z " fill="#FEFEFE" transform="translate(98,22)"/>
<path d="M0 0 C3.50260691 0.36233865 6.05178525 2.185714 9 4 C9.99 4.33 10.98 4.66 12 5 C12 9.29 12 13.58 12 18 C5.07 18 -1.86 18 -9 18 C-9 13.71 -9 9.42 -9 5 C-7.88625 4.54625 -6.7725 4.0925 -5.625 3.625 C-2.03800992 2.27534014 -2.03800992 2.27534014 0 0 Z " fill="#FEFEFE" transform="translate(99,39)"/>
<path d="M0 0 C0.90492188 0.02320312 1.80984375 0.04640625 2.7421875 0.0703125 C5.1553125 0.1321875 5.1553125 0.1321875 7.6171875 0.1953125 C7.6171875 5.8053125 7.6171875 11.4153125 7.6171875 17.1953125 C6.0084375 17.2571875 4.3996875 17.3190625 2.7421875 17.3828125 C1.83726562 17.41761719 0.93234375 17.45242187 0 17.48828125 C-1.17949219 17.34326172 -1.17949219 17.34326172 -2.3828125 17.1953125 C-4.69871539 13.72145817 -4.65273085 12.23101244 -4.6328125 8.1328125 C-4.63796875 7.06933594 -4.643125 6.00585938 -4.6484375 4.91015625 C-4.30436962 1.39358014 -3.59340297 0.29454123 0 0 Z " fill="#FEFEFE" transform="translate(133.3828125,92.8046875)"/>
<path d="M0 0 C1.60875 -0.04125 3.2175 -0.0825 4.875 -0.125 C5.77992187 -0.14820312 6.68484375 -0.17140625 7.6171875 -0.1953125 C10 0 10 0 12 2 C12.265625 4.71484375 12.265625 4.71484375 12.25 7.9375 C12.25515625 8.99839844 12.2603125 10.05929688 12.265625 11.15234375 C12 14 12 14 10 17 C7.6171875 17.29296875 7.6171875 17.29296875 4.875 17.1875 C2.461875 17.0946875 2.461875 17.0946875 0 17 C0 11.39 0 5.78 0 0 Z " fill="#FEFEFE" transform="translate(60,93)"/>
<path d="M0 0 C3.96 0 7.92 0 12 0 C12 1.32 12 2.64 12 4 C8.04 4 4.08 4 0 4 C0 2.68 0 1.36 0 0 Z " fill="#FEFEFE" transform="translate(95,59)"/>
</svg>
