<?xml version="1.0" encoding="UTF-8"?>
<svg version="1.1" xmlns="http://www.w3.org/2000/svg" width="220" height="220">
<path d="M0 0 C62.7 0 125.4 0 190 0 C190 4.95 190 9.9 190 15 C187.00520833 16.13932292 184.01041667 17.27864583 181.015625 18.41796875 C177.60792004 20.20568962 176.05193328 21.76389027 174 25 C173.12345363 28.44622621 172.86735568 31.68537659 172.84178162 35.23286438 C172.8319928 36.2662645 172.82220398 37.29966461 172.81211853 38.36437988 C172.80636307 39.4871936 172.8006076 40.61000732 172.79467773 41.7668457 C172.78477814 42.95751144 172.77487854 44.14817719 172.76467896 45.37492371 C172.73854495 48.6307096 172.7166608 51.88649057 172.69667697 55.14231896 C172.67476308 58.54829013 172.6474009 61.95421745 172.62062073 65.3601532 C172.57076674 71.80566871 172.52580095 78.25120865 172.48259836 84.6967718 C172.43316353 92.03655936 172.37826863 99.37630292 172.32291877 106.71604788 C172.20921074 121.81065755 172.10234749 136.9053087 172 152 C172.66 152 173.32 152 174 152 C174.3695565 155.32600851 174.18026414 156.72415394 172.3203125 159.5703125 C171.59585938 160.41335937 170.87140625 161.25640625 170.125 162.125 C167.92970167 164.71372097 165.88502671 167.17245993 164 170 C163.34 170 162.68 170 162 170 C160.37890625 167.91796875 160.37890625 167.91796875 158.5625 165.1875 C156.20245244 161.56146732 156.20245244 161.56146732 153.21484375 158.48828125 C152.81394531 157.99714844 152.41304687 157.50601563 152 157 C152.13341797 156.33484375 152.26683594 155.6696875 152.40429688 154.984375 C153.21783306 150.90869207 153.23478578 146.90877154 153.31640625 142.76171875 C153.3475779 141.44056816 153.3475779 141.44056816 153.37937927 140.09272766 C153.44453937 137.29106121 153.50360321 134.48930443 153.5625 131.6875 C153.60571715 129.78319394 153.64933244 127.87889688 153.69335938 125.97460938 C153.80093233 121.31649732 153.90025481 116.65831253 154 112 C145.09 112 136.18 112 127 112 C127.1200203 117.60520339 127.24272809 123.21021395 127.37231445 128.81518555 C127.41556753 130.72107468 127.45724925 132.62700017 127.49731445 134.53295898 C127.55525071 137.27599021 127.6188774 140.01884013 127.68359375 142.76171875 C127.70030624 143.61086349 127.71701874 144.46000824 127.73423767 145.33488464 C127.81670818 148.64463575 127.93803794 151.69691543 128.6027832 154.94848633 C129 157 129 157 127.671875 159.0625 C126.72054687 160.0215625 126.72054687 160.0215625 125.75 161 C123.04703822 163.84863038 120.85622599 166.50592754 119 170 C115.07935143 168.69311714 114.2196784 166.85695653 111.875 163.5 C109.61767474 160.10369507 109.61767474 160.10369507 107 157 C106.95936168 155.33382885 106.957279 153.66611905 107 152 C107.66 152 108.32 152 109 152 C109 138.8 109 125.6 109 112 C99.76 112 90.52 112 81 112 C81 125.2 81 138.4 81 152 C81.66 152 82.32 152 83 152 C83.3695565 155.32600851 83.18026414 156.72415394 81.3203125 159.5703125 C80.59585938 160.41335937 79.87140625 161.25640625 79.125 162.125 C76.92970167 164.71372097 74.88502671 167.17245993 73 170 C72.34 170 71.68 170 71 170 C69.37890625 167.91796875 69.37890625 167.91796875 67.5625 165.1875 C65.20245244 161.56146732 65.20245244 161.56146732 62.21484375 158.48828125 C61.81394531 157.99714844 61.41304687 157.50601563 61 157 C61.13341797 156.33484375 61.26683594 155.6696875 61.40429688 154.984375 C62.21783306 150.90869207 62.23478578 146.90877154 62.31640625 142.76171875 C62.33718735 141.88095169 62.35796844 141.00018463 62.37937927 140.09272766 C62.44453937 137.29106121 62.50360321 134.48930443 62.5625 131.6875 C62.60571715 129.78319394 62.64933244 127.87889688 62.69335938 125.97460938 C62.80093233 121.31649732 62.90025481 116.65831253 63 112 C54.09 112 45.18 112 36 112 C36.1200203 117.60520339 36.24272809 123.21021395 36.37231445 128.81518555 C36.41556753 130.72107468 36.45724925 132.62700017 36.49731445 134.53295898 C36.55525071 137.27599021 36.6188774 140.01884013 36.68359375 142.76171875 C36.70866249 144.03543587 36.70866249 144.03543587 36.73423767 145.33488464 C36.81670818 148.64463575 36.93803794 151.69691543 37.6027832 154.94848633 C38 157 38 157 36.671875 159.0625 C36.03765625 159.701875 35.4034375 160.34125 34.75 161 C32.04703822 163.84863038 29.85622599 166.50592754 28 170 C24.07935143 168.69311714 23.2196784 166.85695653 20.875 163.5 C18.61767474 160.10369507 18.61767474 160.10369507 16 157 C15.95936168 155.33382885 15.957279 153.66611905 16 152 C16.66 152 17.32 152 18 152 C17.91603119 136.21398348 17.82087253 120.4280764 17.71247292 104.64221096 C17.66239814 97.31219497 17.61595473 89.98218987 17.578125 82.65209961 C17.54513486 76.26155283 17.50526508 69.87109189 17.45720994 63.48063999 C17.43201457 60.09843496 17.41021298 56.71628636 17.39665604 53.33401299 C17.37977317 49.55384913 17.35073215 45.77395945 17.31884766 41.99389648 C17.31668747 40.87827332 17.31452728 39.76265015 17.31230164 38.61322021 C17.38642693 29.00229041 17.38642693 29.00229041 13 20.8125 C8.83904264 18.29858826 4.55493646 16.70050961 0 15 C0 10.05 0 5.1 0 0 Z M36 15 C36 25.89 36 36.78 36 48 C44.91 48 53.82 48 63 48 C63 37.11 63 26.22 63 15 C54.09 15 45.18 15 36 15 Z M81 15 C81 25.89 81 36.78 81 48 C90.24 48 99.48 48 109 48 C109 37.11 109 26.22 109 15 C99.76 15 90.52 15 81 15 Z M127 15 C127 25.89 127 36.78 127 48 C135.91 48 144.82 48 154 48 C154 37.11 154 26.22 154 15 C145.09 15 136.18 15 127 15 Z M36 66 C36 74.91 36 83.82 36 93 C44.91 93 53.82 93 63 93 C63 84.09 63 75.18 63 66 C54.09 66 45.18 66 36 66 Z M81 66 C81 74.91 81 83.82 81 93 C90.24 93 99.48 93 109 93 C109 84.09 109 75.18 109 66 C99.76 66 90.52 66 81 66 Z M127 66 C127 74.91 127 83.82 127 93 C135.91 93 144.82 93 154 93 C154 84.09 154 75.18 154 66 C145.09 66 136.18 66 127 66 Z " fill="#FEFEFE" transform="translate(15,25)"/>
</svg>
